<mxfile host="app.diagrams.net" modified="2023-04-17T08:33:43.760Z" agent="Mozilla/5.0 (Windows NT 10.0; Win64; x64) AppleWebKit/537.36 (KHTML, like Gecko) Chrome/112.0.0.0 Safari/537.36" version="21.1.8" etag="O0PnvvvvbDLSn62KM18v" type="github">
  <diagram name="Page-1" id="CrCrczFXpA4y9oFddKT8">
    <mxGraphModel>
      <root>
        <mxCell id="0" />
        <mxCell id="1" parent="0" />
      </root>
    </mxGraphModel>
  </diagram>
</mxfile>
